<?xml version="1.0" encoding="UTF-8"?>
<svg width="470px" height="428px" viewBox="0 0 470 428" version="1.1" xmlns="http://www.w3.org/2000/svg" xmlns:xlink="http://www.w3.org/1999/xlink">
    <title>logo</title>
    <g id="Page-1" stroke="none" stroke-width="1" fill="none" fill-rule="evenodd">
        <g id="logo" fill-rule="nonzero">
            <g id="Group" fill="#FFFFFF">
                <path d="M188.864,46.349 C147.819,5.325 67.499,0.568 10.667,0.568 C4.776,0.568 0,5.344 0,11.235 C0,68.088 4.757,148.408 45.781,189.454 C65.042,206.608 90.219,215.597 115.989,214.521 C142.56,215.568 168.559,206.625 188.864,189.454 C219.435,158.861 225.045,82.531 188.864,46.349 Z" id="Path"></path>
                <path d="M459.136,42.765 C402.283,42.765 321.963,47.522 280.917,88.546 C244.65,124.813 250.346,201.037 280.917,231.629 C301.228,248.803 327.235,257.746 353.813,256.696 C379.582,257.77 404.759,248.781 424.021,231.629 C465.066,190.584 469.802,110.264 469.802,53.41 C469.791,47.528 465.019,42.765 459.136,42.765 Z" id="Path"></path>
            </g>
            <path d="M224,427.235 C218.109,427.235 213.333,422.459 213.333,416.568 C213.333,190.328 130.368,133.56 99.136,112.205 C95.369,109.8 91.802,107.096 88.469,104.12 C84.376,99.883 84.494,93.13 88.731,89.037 C92.865,85.044 99.418,85.044 103.552,89.037 C105.961,91.074 108.513,92.935 111.189,94.605 C138.922,113.57 204.245,158.264 226.837,304.866 C244.296,228.221 296.05,163.871 367.168,130.381 C372.614,127.819 379.114,129.871 382.101,135.096 C384.799,139.851 383.133,145.892 378.378,148.591 C378.2,148.692 378.018,148.788 377.834,148.878 L376.106,149.689 C259.157,204.665 234.602,325.156 234.602,416.569 C234.603,422.434 229.866,427.199 224,427.235 Z" id="Path" fill="#035507"></path>
        </g>
    </g>
</svg>