<?xml version="1.0" encoding="UTF-8"?>
<svg width="172px" height="107px" viewBox="0 0 172 107" version="1.1" xmlns="http://www.w3.org/2000/svg" xmlns:xlink="http://www.w3.org/1999/xlink">
    <title>Group</title>
    <g id="Page-1" stroke="none" stroke-width="1" fill="none" fill-rule="evenodd">
        <g id="Group" fill="#FFFFFF">
            <circle id="Oval" cx="4" cy="4" r="4"></circle>
            <circle id="Oval" cx="4" cy="103" r="4"></circle>
            <circle id="Oval" cx="4" cy="70" r="4"></circle>
            <circle id="Oval" cx="4" cy="37" r="4"></circle>
            <circle id="Oval" cx="45" cy="4" r="4"></circle>
            <circle id="Oval" cx="45" cy="103" r="4"></circle>
            <circle id="Oval" cx="45" cy="70" r="4"></circle>
            <circle id="Oval" cx="45" cy="37" r="4"></circle>
            <circle id="Oval" cx="86" cy="4" r="4"></circle>
            <circle id="Oval" cx="86" cy="103" r="4"></circle>
            <circle id="Oval" cx="86" cy="70" r="4"></circle>
            <circle id="Oval" cx="86" cy="37" r="4"></circle>
            <circle id="Oval" cx="127" cy="4" r="4"></circle>
            <circle id="Oval" cx="127" cy="103" r="4"></circle>
            <circle id="Oval" cx="127" cy="70" r="4"></circle>
            <circle id="Oval" cx="127" cy="37" r="4"></circle>
            <circle id="Oval" cx="168" cy="4" r="4"></circle>
            <circle id="Oval" cx="168" cy="103" r="4"></circle>
            <circle id="Oval" cx="168" cy="70" r="4"></circle>
            <circle id="Oval" cx="168" cy="37" r="4"></circle>
        </g>
    </g>
</svg>